<svg width="36" height="35" viewBox="0 0 36 35" fill="none" xmlns="http://www.w3.org/2000/svg">
<g clip-path="url(#clip0_9500_2332)">
<path fill-rule="evenodd" clip-rule="evenodd" d="M16.3634 1.00682C21.074 0.817647 24.7838 4.6007 28.2084 7.97435C31.7717 11.4846 36.4953 15.2325 35.9579 20.3098C35.4317 25.2821 29.8565 27.4261 25.8567 30.1961C22.9335 32.2205 19.8426 33.3918 16.3634 33.8795C12.0844 34.4793 7.04723 36.3685 3.91734 33.2713C0.774746 30.1614 2.37722 24.8154 2.65086 20.3098C2.89812 16.2386 3.06835 12.1699 5.39805 8.89039C8.14413 5.02477 11.7496 1.1921 16.3634 1.00682Z" fill="#DEE6F7"/>
<path d="M5 14.3333V7C5 6.73478 5.10536 6.48043 5.29289 6.29289C5.48043 6.10536 5.73478 6 6 6H26C26.2652 6 26.5196 6.10536 26.7071 6.29289C26.8946 6.48043 27 6.73478 27 7V14.3333C27 24.8352 18.0868 28.3146 16.307 28.9047C16.1081 28.9731 15.8919 28.9731 15.693 28.9047C13.9133 28.3146 5 24.8352 5 14.3333Z" stroke="#175ADC" stroke-width="2" stroke-linecap="round" stroke-linejoin="round"/>
<path d="M21.5 13L14.1666 20L10.5 16.5" stroke="#175ADC" stroke-width="2" stroke-linecap="round" stroke-linejoin="round"/>
</g>
<defs>
<clipPath id="clip0_9500_2332">
<rect width="36" height="35" fill="white"/>
</clipPath>
</defs>
</svg>
