<svg width="24" height="24" viewBox="0 0 24 24" fill="none" xmlns="http://www.w3.org/2000/svg">
<g clip-path="url(#clip0_4007_41155)">
<path d="M6.95754 12.3465L7.2804 12.4489C7.24423 12.6068 7.15615 12.748 7.03024 12.8499C6.90279 12.9414 6.74843 12.9876 6.59169 12.9813C6.49089 12.9843 6.3906 12.9659 6.29747 12.9272C6.20435 12.8885 6.1205 12.8305 6.05151 12.7569C5.90371 12.5878 5.82795 12.3675 5.84044 12.1433C5.84044 11.8681 5.9108 11.6555 6.05307 11.503C6.12461 11.4274 6.21151 11.368 6.30791 11.3288C6.40432 11.2895 6.50801 11.2714 6.61201 11.2755C6.79315 11.2678 6.96998 11.3321 7.10372 11.4545C7.1852 11.5381 7.24271 11.6421 7.27023 11.7555L6.94034 11.8337C6.92508 11.7537 6.88169 11.6818 6.81803 11.6311C6.75436 11.5803 6.67462 11.554 6.59325 11.557C6.53693 11.5551 6.48091 11.5659 6.42935 11.5886C6.37779 11.6114 6.33201 11.6454 6.29541 11.6883C6.21724 11.7766 6.18128 11.9189 6.18128 12.1151C6.18128 12.3236 6.2188 12.4721 6.29385 12.5607C6.32923 12.6037 6.37396 12.638 6.42463 12.661C6.47531 12.6841 6.53058 12.6952 6.58622 12.6936C6.6702 12.6976 6.75258 12.6697 6.81683 12.6154C6.891 12.5429 6.94027 12.4488 6.95754 12.3465Z" fill="#008A22"/>
<path d="M7.5625 12.9532V11.3037H8.78591V11.5828H7.89552V11.9486H8.72416V12.2246H7.89552V12.6741H8.8164V12.9516L7.5625 12.9532Z" fill="#008A22"/>
<path d="M9.14014 12.953V11.3036H9.8437C9.97321 11.2975 10.1028 11.3125 10.2275 11.3481C10.3072 11.3774 10.3749 11.4324 10.4198 11.5045C10.4682 11.5823 10.4931 11.6724 10.4918 11.764C10.4959 11.8766 10.4567 11.9866 10.3823 12.0712C10.2956 12.1603 10.1801 12.2157 10.0563 12.2276C10.122 12.2649 10.1821 12.3115 10.2346 12.3659C10.3055 12.4492 10.3688 12.5387 10.4237 12.6333L10.6254 12.9554H10.2252L9.98441 12.5965C9.93097 12.5121 9.87222 12.4312 9.80852 12.3542C9.78124 12.3235 9.7469 12.2999 9.70846 12.2854C9.65374 12.2705 9.59704 12.2642 9.54038 12.2666H9.47316V12.9554L9.14014 12.953ZM9.47316 12.0009H9.7194C9.81966 12.0063 9.9202 11.9994 10.0188 11.9805C10.0569 11.9684 10.09 11.9439 10.1126 11.911C10.1359 11.8741 10.1476 11.831 10.1462 11.7874C10.1486 11.7386 10.1327 11.6907 10.1017 11.653C10.0688 11.617 10.0242 11.594 9.97581 11.5881C9.94923 11.5881 9.86793 11.5826 9.73347 11.5826H9.47316V12.0009Z" fill="#008A22"/>
<path d="M11.171 12.9537V11.5833H10.6816V11.3042H11.9926V11.5833H11.5048V12.9537H11.171Z" fill="#008A22"/>
<path d="M12.1951 12.9532V11.3037H12.5281V12.9532H12.1951Z" fill="#008A22"/>
<path d="M12.8501 12.9532V11.3037H13.9813V11.5828H13.1831V11.9737H13.8718V12.2527H13.1831V12.9563L12.8501 12.9532Z" fill="#008A22"/>
<path d="M14.2456 12.9532V11.3037H14.5786V12.9532H14.2456Z" fill="#008A22"/>
<path d="M14.896 12.9532V11.3037H16.1194V11.5828H15.229V11.9486H16.0577V12.2246H15.229V12.6741H16.1507V12.9516L14.896 12.9532Z" fill="#008A22"/>
<path d="M16.4322 11.3039H17.0419C17.1471 11.3004 17.2522 11.3109 17.3546 11.3352C17.4496 11.3626 17.5354 11.4149 17.6032 11.4868C17.674 11.5636 17.7273 11.6548 17.7596 11.7542C17.7986 11.8807 17.8169 12.0127 17.8135 12.145C17.816 12.264 17.7988 12.3826 17.7627 12.496C17.7278 12.6059 17.6672 12.7058 17.586 12.7876C17.5192 12.8491 17.4389 12.8941 17.3515 12.9189C17.2556 12.9453 17.1562 12.9571 17.0568 12.9541H16.4314L16.4322 11.3039ZM16.7652 11.583V12.6774H17.0138C17.0814 12.6797 17.1491 12.6742 17.2155 12.661C17.2652 12.6496 17.3113 12.6263 17.3499 12.593C17.3918 12.5491 17.4216 12.4953 17.4367 12.4366C17.4626 12.3379 17.4741 12.2361 17.4711 12.1341C17.4746 12.0352 17.463 11.9363 17.4367 11.8409C17.4188 11.7817 17.3863 11.7279 17.3421 11.6846C17.2985 11.6442 17.2443 11.6171 17.1858 11.6064C17.0952 11.5931 17.0036 11.5879 16.9122 11.5908L16.7652 11.583Z" fill="#008A22"/>
<path d="M0 12.53C0.178235 11.9828 0.569884 11.771 1.13039 11.7968C1.54236 11.8155 1.95512 11.7968 2.39601 11.7968V10.8485C2.39601 10.0129 2.63053 9.68141 3.41227 9.39998V9.21784C3.39653 9.01017 3.43562 8.80201 3.52562 8.61419C3.61561 8.42638 3.75337 8.26549 3.92508 8.14765C4.16898 7.96628 4.43008 7.80447 4.65835 7.60043C4.78828 7.48401 4.88715 7.33705 4.94603 7.17283C5.0414 6.89375 5.08909 6.59825 5.15944 6.31292C5.2853 5.80323 5.59956 5.43894 6.11785 5.37484C6.9285 5.27165 7.51168 4.9058 7.91583 4.18582C8.19726 3.68004 8.69366 3.5448 9.25416 3.63861C9.42474 3.6567 9.59414 3.68463 9.76151 3.72225C10.1719 3.84811 10.5221 3.74571 10.8559 3.49477C11.022 3.37824 11.1954 3.27249 11.375 3.17817C11.5628 3.06171 11.7794 3 12.0004 3C12.2214 3 12.438 3.06171 12.6258 3.17817C12.9033 3.33451 13.166 3.52369 13.4505 3.6691C13.5942 3.7412 13.7543 3.77436 13.9149 3.76525C14.2018 3.74727 14.4855 3.68708 14.7748 3.64017C15.322 3.55105 15.7754 3.70896 16.1037 4.17566C16.2564 4.41193 16.4234 4.63854 16.604 4.8542C16.726 4.98855 16.879 5.09107 17.0496 5.15283C17.3576 5.25836 17.6844 5.30917 17.9994 5.39907C18.1978 5.44905 18.3789 5.55217 18.5231 5.69735C18.6673 5.84252 18.7692 6.02426 18.8179 6.22302C18.9117 6.56073 18.9742 6.90704 19.0813 7.23927C19.1273 7.36841 19.2056 7.4836 19.3088 7.57385C19.461 7.70816 19.6248 7.82876 19.7982 7.93423C20.3376 8.27507 20.7026 8.70659 20.5799 9.40702C20.9262 9.48519 21.2053 9.64154 21.4015 9.92531C21.5977 10.2091 21.6243 10.5507 21.6181 10.89C21.6118 11.1839 21.6181 11.4794 21.6181 11.7991C22.1113 11.7991 22.578 11.7944 23.0439 11.7991C23.5474 11.8054 23.9124 12.0602 23.982 12.5097C24.0048 12.7311 23.9681 12.9545 23.8757 13.157C23.7394 13.4465 23.5772 13.723 23.391 13.9833C23.2816 14.1451 23.291 14.2686 23.3965 14.425C23.5575 14.6642 23.6975 14.9175 23.8437 15.1668C24.258 15.8743 23.8507 16.5974 23.033 16.6005H19.8146C19.6442 16.6074 19.4802 16.6677 19.3459 16.7727C19.2115 16.8778 19.1135 17.0223 19.0657 17.186C18.9875 17.4808 18.9219 17.777 18.8499 18.0725C18.7272 18.583 18.4122 18.9051 17.9025 19.0333C17.5898 19.1115 17.2771 19.1717 16.9722 19.2678C16.8423 19.3114 16.7269 19.3899 16.6384 19.4945C16.4438 19.729 16.2726 19.9807 16.0967 20.2293C15.7676 20.6984 15.3149 20.8547 14.7677 20.7625C14.4746 20.7148 14.1822 20.6577 13.8875 20.6327C13.7507 20.6219 13.6136 20.649 13.4912 20.7109C13.2152 20.8555 12.9557 21.0306 12.6883 21.1917C12.2302 21.4692 11.7737 21.4653 11.3179 21.1854C11.0654 21.0291 10.8184 20.8633 10.5542 20.7296C10.4187 20.6616 10.2679 20.6295 10.1164 20.6366C9.82874 20.6562 9.54497 20.7148 9.25651 20.7625C8.696 20.8555 8.24025 20.6976 7.91036 20.2153C7.79466 20.0488 7.65552 19.8963 7.55702 19.7196C7.37409 19.3921 7.09736 19.2358 6.7362 19.1771C6.49058 19.1325 6.24802 19.0725 6.00997 18.9973C5.81582 18.947 5.63872 18.8455 5.49711 18.7035C5.3555 18.5615 5.25455 18.3841 5.20478 18.1898C5.10863 17.8529 5.03436 17.5089 4.94603 17.1735C4.89592 17.0149 4.79868 16.8754 4.66727 16.7734C4.53585 16.6715 4.37649 16.612 4.21042 16.6029C3.20276 16.6029 2.19511 16.5849 1.18745 16.6099C0.624605 16.6232 0.217322 16.4473 0.00859907 15.9064V15.5311C0.225921 15.1449 0.437771 14.7556 0.66291 14.3734C0.69905 14.324 0.718533 14.2645 0.718533 14.2033C0.718533 14.1422 0.69905 14.0826 0.66291 14.0333C0.436989 13.6628 0.225139 13.2829 0.00781733 12.9068L0 12.53ZM12.0137 10.1981H3.74372C3.33097 10.1981 3.19651 10.3334 3.19651 10.7453V13.6503C3.19651 14.0677 3.32862 14.2037 3.73903 14.2037H20.2539C20.6659 14.2037 20.8011 14.0677 20.8011 13.6565V10.8423C20.8011 10.2951 20.7026 10.195 20.164 10.195L12.0137 10.1981ZM4.25263 9.39842C4.83659 9.39842 5.4135 9.39138 5.99042 9.39842C6.06916 9.40762 6.14874 9.39083 6.21704 9.3506C6.28535 9.31038 6.33863 9.24894 6.36878 9.17563C7.46321 7.2166 9.12596 6.07293 11.3516 5.83528C13.9915 5.55307 16.4039 6.88046 17.6601 9.228C17.6835 9.28384 17.7247 9.33037 17.7773 9.36034C17.8299 9.39032 17.891 9.40206 17.9509 9.39373C18.4669 9.38669 18.9821 9.39373 19.498 9.39373C19.7708 9.39373 19.8592 9.28351 19.7677 9.02163C19.7263 8.92172 19.6585 8.83497 19.5715 8.77069C19.3323 8.58307 19.0845 8.40484 18.8343 8.23207C18.6908 8.13694 18.5675 8.01432 18.4715 7.87129C18.3756 7.72827 18.3089 7.56766 18.2754 7.39875C18.216 7.11654 18.1315 6.83981 18.0752 6.55682C18.0603 6.44402 18.0082 6.33941 17.9273 6.25945C17.8463 6.17949 17.7411 6.12872 17.6281 6.11514C17.3381 6.05573 17.0512 5.9799 16.7627 5.91111C16.4452 5.84331 16.1656 5.6568 15.981 5.38969C15.8067 5.14032 15.6175 4.90111 15.4471 4.64861C15.394 4.55641 15.3127 4.48379 15.2151 4.44154C15.1175 4.39929 15.0088 4.38966 14.9053 4.41409C14.6512 4.45787 14.3948 4.48679 14.1431 4.53917C13.9415 4.58822 13.7316 4.59351 13.5277 4.55467C13.3239 4.51584 13.1307 4.43378 12.9611 4.31403C12.7501 4.16784 12.5187 4.0498 12.3037 3.90752C12.2161 3.84132 12.1094 3.8055 11.9996 3.8055C11.8898 3.8055 11.7831 3.84132 11.6955 3.90752C11.4282 4.08263 11.1483 4.24602 10.8763 4.40783C10.6283 4.5621 10.3321 4.61944 10.0445 4.56887C9.73727 4.51571 9.42692 4.47663 9.1197 4.42347C8.87189 4.37969 8.68115 4.44067 8.53575 4.65799C8.36924 4.91283 8.1785 5.15126 8.00261 5.39985C7.8216 5.65847 7.55019 5.83978 7.24198 5.90798C6.92929 5.98615 6.62128 6.06433 6.30937 6.1339C6.21662 6.1486 6.13095 6.19242 6.06476 6.25904C5.99856 6.32565 5.95528 6.4116 5.94117 6.50444C5.87395 6.80932 5.78952 7.11029 5.71994 7.4136C5.65304 7.73938 5.46215 8.02641 5.18758 8.21409C4.94446 8.38373 4.71307 8.57056 4.46526 8.73395C4.21745 8.89733 4.16117 9.09745 4.25263 9.39842ZM5.25872 15.0058H4.50904C4.22371 15.0058 4.11817 15.1739 4.25263 15.4334C4.29946 15.5136 4.36289 15.5829 4.43868 15.6367C4.68727 15.8251 4.94056 16.0088 5.19618 16.1886C5.46123 16.3723 5.64629 16.6502 5.71369 16.9656C5.78717 17.2783 5.87004 17.5863 5.94039 17.8982C5.95439 17.9873 5.99604 18.0697 6.05945 18.1338C6.12285 18.1979 6.20482 18.2405 6.29374 18.2555C6.59783 18.3258 6.89802 18.4118 7.20289 18.4775C7.53591 18.5429 7.8297 18.737 8.02059 19.0177C8.19022 19.2616 8.37627 19.4929 8.54044 19.74C8.59626 19.8347 8.68129 19.9088 8.78277 19.951C8.88426 19.9933 8.99673 20.0016 9.10329 19.9745C9.33781 19.9331 9.58327 19.9088 9.81935 19.8565C10.0288 19.8034 10.2472 19.7969 10.4594 19.8374C10.6716 19.8779 10.8723 19.9645 11.0475 20.091C11.2648 20.2418 11.5016 20.3646 11.7252 20.5076C11.8047 20.5656 11.9005 20.5968 11.9988 20.5968C12.0972 20.5968 12.193 20.5656 12.2724 20.5076C12.5492 20.3325 12.8298 20.1637 13.112 19.9964C13.3589 19.8407 13.6545 19.7816 13.9422 19.8307C14.2494 19.8838 14.5598 19.9221 14.867 19.9768C15.125 20.023 15.3204 19.9557 15.4697 19.7282C15.6315 19.4804 15.8176 19.2483 15.988 19.0051C16.1726 18.7385 16.4523 18.5527 16.7697 18.4861C17.0824 18.4134 17.3897 18.3297 17.7016 18.2602C17.7905 18.2453 17.8726 18.203 17.9363 18.1392C18.0001 18.0755 18.0424 17.9934 18.0573 17.9045C18.1268 17.6004 18.2136 17.2994 18.2793 16.9953C18.3457 16.6623 18.5406 16.3688 18.8218 16.1784C19.072 16.0049 19.3177 15.8253 19.559 15.6398C19.6418 15.582 19.7101 15.5057 19.7583 15.417C19.8771 15.1614 19.7724 15.0074 19.4949 15.0074C18.9953 15.0074 18.495 15.0152 17.9955 15.0034C17.9206 14.9936 17.8446 15.0089 17.7794 15.047C17.7141 15.0851 17.6634 15.1437 17.6351 15.2137C16.9816 16.4541 15.9357 17.4432 14.6608 18.0266C13.3859 18.61 11.9537 18.7548 10.5878 18.4384C8.68428 18.003 7.27481 16.8937 6.34299 15.1801C6.27419 15.0527 6.20384 14.998 6.05765 15.0042C5.79186 15.0113 5.52451 15.0058 5.25872 15.0058ZM7.19898 9.38279H16.8002C16.1748 8.12185 14.3972 6.59512 11.9879 6.59981C9.6935 6.60763 7.87596 8.0343 7.19898 9.38279ZM7.19898 15.016C7.9385 16.4575 9.80372 17.8138 12.0403 17.7974C14.4746 17.7794 16.2233 16.205 16.7995 15.016H7.19898ZM21.604 12.602V13.5737C21.604 14.3835 21.3554 14.7338 20.6081 14.9902C20.5776 15.2614 20.5479 15.5264 20.5174 15.8016H23.0189C23.2128 15.8016 23.23 15.7156 23.1393 15.5671C22.965 15.2802 22.7961 14.9909 22.6218 14.7072C22.5205 14.5571 22.4664 14.3801 22.4664 14.199C22.4664 14.018 22.5205 13.841 22.6218 13.6909C22.8008 13.3986 22.9751 13.1031 23.1518 12.8091C23.2222 12.6919 23.2081 12.6067 23.0572 12.6051C22.5812 12.6051 22.1066 12.6051 21.6016 12.6051L21.604 12.602ZM2.39836 12.602H1.01C0.786424 12.602 0.763754 12.652 0.881014 12.8529C1.03032 13.1085 1.17495 13.3681 1.33755 13.6151C1.59943 14.0138 1.59317 14.3968 1.33051 14.7932C1.17416 15.0332 1.03189 15.2864 0.884922 15.535C0.755154 15.7547 0.780952 15.8008 1.04127 15.8016H3.38178C3.41686 15.8002 3.45183 15.7968 3.48653 15.7914C3.45526 15.5108 3.42712 15.2505 3.3982 14.987C2.679 14.7588 2.40227 14.3804 2.40149 13.6151L2.39836 12.602Z" fill="#008A22"/>
</g>
<defs>
<clipPath id="clip0_4007_41155">
<rect width="24" height="24" fill="white"/>
</clipPath>
</defs>
</svg>
