<svg width="24" height="24" viewBox="0 0 24 24" fill="none" xmlns="http://www.w3.org/2000/svg">
<path d="M6.11499 18.0917V16.5908H6.41824V18.0917H6.11499Z" fill="#008A22"/>
<path d="M6.70996 18.0917V16.5908H7.00551L7.61971 17.593V16.5908H7.90081V18.0917H7.5966L6.99203 17.1126V18.0917H6.70996Z" fill="#008A22"/>
<path d="M8.14502 17.6035L8.4396 17.5746C8.44966 17.6576 8.48769 17.7346 8.54742 17.7931C8.61016 17.842 8.68845 17.8666 8.76788 17.8624C8.8463 17.8682 8.92426 17.8464 8.98834 17.8008C9.01094 17.7838 9.02937 17.7619 9.04221 17.7367C9.05506 17.7115 9.06199 17.6837 9.06247 17.6555C9.06317 17.6226 9.05226 17.5906 9.03166 17.565C9.00104 17.5344 8.96334 17.5119 8.92191 17.4995C8.88629 17.4879 8.80543 17.4658 8.67931 17.434C8.55555 17.4114 8.43863 17.3607 8.33756 17.2858C8.26414 17.2235 8.21613 17.1365 8.20264 17.0412C8.18916 16.9459 8.21113 16.849 8.26439 16.7688C8.30997 16.7005 8.37505 16.6475 8.45116 16.6167C8.5452 16.5798 8.6457 16.5621 8.7467 16.5647C8.89888 16.5534 9.05 16.5975 9.17221 16.6889C9.21943 16.73 9.25727 16.7807 9.28318 16.8377C9.30909 16.8947 9.32246 16.9565 9.32239 17.0191L9.01914 17.0326C9.0133 16.9687 8.98377 16.9093 8.93635 16.866C8.87945 16.8286 8.81176 16.811 8.74381 16.816C8.67086 16.8116 8.59839 16.8305 8.53684 16.8699C8.52122 16.8805 8.50859 16.8949 8.50016 16.9117C8.49172 16.9286 8.48778 16.9473 8.4887 16.9662C8.48814 16.9846 8.49194 17.003 8.4998 17.0197C8.50766 17.0364 8.51936 17.0511 8.53395 17.0624C8.61996 17.1114 8.71429 17.144 8.81217 17.1587C8.92523 17.1813 9.03513 17.2175 9.13948 17.2665C9.20776 17.3016 9.2653 17.3545 9.30603 17.4196C9.34731 17.4935 9.36801 17.5772 9.36598 17.6618C9.36394 17.7465 9.33925 17.8291 9.29447 17.9009C9.24588 17.9766 9.17486 18.0351 9.09135 18.0684C8.9869 18.108 8.87568 18.1267 8.76403 18.1233C8.60715 18.134 8.45175 18.0871 8.32697 17.9914C8.21799 17.8908 8.15269 17.7516 8.14502 17.6035Z" fill="#008A22"/>
<path d="M9.62085 18.0918V16.5909H10.1022C10.223 16.5858 10.344 16.5932 10.4632 16.6131C10.55 16.6356 10.6263 16.6876 10.6788 16.7604C10.7398 16.844 10.7706 16.9458 10.7665 17.0492C10.7688 17.1297 10.7516 17.2097 10.7164 17.2821C10.6863 17.3411 10.6423 17.392 10.5884 17.4304C10.5413 17.4643 10.4879 17.4885 10.4314 17.5016C10.3274 17.5183 10.222 17.5254 10.1166 17.5228H9.9241V18.0889L9.62085 18.0918ZM9.9241 16.8403V17.2667H10.0897C10.1703 17.2712 10.2511 17.2634 10.3294 17.2436C10.3683 17.2293 10.4018 17.2034 10.4257 17.1695C10.4483 17.1349 10.46 17.0943 10.4594 17.053C10.4615 17.0033 10.4442 16.9546 10.4112 16.9173C10.3797 16.8818 10.3368 16.8583 10.2899 16.8509C10.2174 16.8419 10.1444 16.8384 10.0714 16.8403H9.9241Z" fill="#008A22"/>
<path d="M11.0198 18.0917V16.5908H12.1336V16.844H11.323V17.1771H12.0768V17.4303H11.323V17.8394H12.1673V18.0917H11.0198Z" fill="#008A22"/>
<path d="M13.3805 17.5374L13.6741 17.6337C13.6417 17.777 13.5624 17.9053 13.4489 17.9986C13.3331 18.0818 13.1928 18.1239 13.0503 18.1179C12.9585 18.1207 12.8672 18.1039 12.7824 18.0687C12.6976 18.0335 12.6213 17.9807 12.5584 17.9139C12.4237 17.7597 12.3546 17.5589 12.3658 17.3545C12.3538 17.1445 12.4227 16.9378 12.5584 16.7769C12.6237 16.7082 12.7028 16.6541 12.7907 16.6184C12.8785 16.5828 12.9729 16.5662 13.0676 16.5699C13.2325 16.5627 13.3935 16.6212 13.5153 16.7326C13.5904 16.8093 13.6435 16.9047 13.6693 17.0089L13.369 17.0811C13.3546 17.0086 13.3154 16.9432 13.2583 16.8963C13.1993 16.8509 13.1266 16.8272 13.0522 16.8289C13.001 16.8274 12.9501 16.8374 12.9033 16.8582C12.8565 16.8791 12.8149 16.9102 12.7817 16.9492C12.7031 17.0615 12.6663 17.1977 12.6778 17.3343C12.6645 17.4771 12.7005 17.6201 12.7798 17.7396C12.812 17.7789 12.8528 17.8102 12.899 17.8312C12.9453 17.8523 12.9957 17.8624 13.0465 17.8609C13.123 17.8623 13.1973 17.8348 13.2544 17.7839C13.3212 17.7169 13.3653 17.6307 13.3805 17.5374Z" fill="#008A22"/>
<path d="M14.2719 18.0916V16.8401H13.8271V16.5869H15.0199V16.8401H14.5742V18.0916H14.2719Z" fill="#008A22"/>
<path d="M15.2153 18.0917V16.5908H16.3292V16.844H15.5186V17.1771H16.2724V17.4303H15.5186V17.8394H16.358V18.0917H15.2153Z" fill="#008A22"/>
<path d="M16.614 16.5909H17.1676C17.2646 16.5877 17.3617 16.5971 17.4564 16.6189C17.5429 16.6438 17.6211 16.6917 17.6826 16.7575C17.7475 16.8273 17.7964 16.9104 17.826 17.0011C17.8616 17.1157 17.8782 17.2353 17.8751 17.3553C17.8775 17.4637 17.8619 17.5717 17.8289 17.6749C17.7975 17.7752 17.7424 17.8663 17.6682 17.9406C17.6077 17.9967 17.5348 18.0377 17.4554 18.06C17.3679 18.0838 17.2774 18.0945 17.1868 18.0918H16.6169L16.614 16.5909ZM16.9163 16.8441V17.8396H17.1435C17.2048 17.8416 17.2662 17.8368 17.3264 17.8251C17.3716 17.8144 17.4135 17.7929 17.4487 17.7625C17.4874 17.7218 17.5149 17.6717 17.5286 17.6172C17.5511 17.5282 17.5612 17.4365 17.5584 17.3447C17.5616 17.2545 17.5512 17.1643 17.5276 17.0771C17.5114 17.0221 17.4816 16.9721 17.441 16.9317C17.4019 16.8956 17.3536 16.8709 17.3014 16.8605C17.2189 16.8481 17.1354 16.8433 17.052 16.8461L16.9163 16.8441Z" fill="#008A22"/>
<path d="M1 16.7861C1.13285 16.5657 1.32924 16.4973 1.58339 16.4973C2.25728 16.5079 2.93116 16.4973 3.61178 16.4973H3.8669V15.4952C3.8669 15.0138 3.97472 14.8983 4.45703 14.8877C4.49072 14.8877 4.52538 14.8877 4.57929 14.8781C3.53573 12.7399 3.37689 10.546 4.18555 8.32022C4.76464 6.70958 5.85028 5.33008 7.27964 4.38858C10.1591 2.44779 13.979 2.5508 16.714 4.63888C18.2813 5.83743 19.3133 7.39699 19.7513 9.32238C20.1893 11.2478 19.9439 13.0952 19.0505 14.8906H19.2998C19.6079 14.8973 19.7687 15.0533 19.7715 15.3594V16.5031H22.108C22.3005 16.5031 22.4748 16.5397 22.5807 16.7207C22.6866 16.9017 22.6307 17.0682 22.5277 17.2347C22.2235 17.7248 21.9328 18.2234 21.6228 18.7096C21.5798 18.7632 21.5563 18.83 21.5563 18.8988C21.5563 18.9676 21.5798 19.0343 21.6228 19.0879C21.928 19.5693 22.2168 20.0603 22.5162 20.5454C22.6182 20.7101 22.6827 20.8737 22.5816 21.0595C22.4806 21.2453 22.3111 21.2809 22.1147 21.28H17.6998C17.3196 21.28 17.1819 21.1385 17.1809 20.7544C17.18 20.3702 17.1809 19.9688 17.1809 19.5481H13.7075C13.4187 19.5481 13.2262 19.3758 13.2262 19.1274C13.2262 18.879 13.4101 18.7202 13.6883 18.7048H18.9061V15.7484H4.73043V18.6971H9.74799C9.83926 18.6942 9.93058 18.7009 10.0204 18.7173C10.1184 18.739 10.2052 18.7953 10.2648 18.8759C10.3245 18.9565 10.3531 19.0559 10.3452 19.1559C10.3373 19.2559 10.2936 19.3497 10.2221 19.42C10.1506 19.4903 10.056 19.5324 9.95593 19.5385C9.88661 19.5433 9.81537 19.5385 9.7451 19.5385H6.45461V20.7207C6.45461 21.1423 6.32465 21.2704 5.89625 21.2704H1.54392C1.28881 21.2704 1.10686 21.1953 1 20.9594V20.7139C1.34176 20.1594 1.67966 19.602 2.02816 19.0513C2.06464 19.0059 2.08453 18.9493 2.08453 18.8911C2.08453 18.8328 2.06464 18.7762 2.02816 18.7308C1.68062 18.1714 1.34176 17.6044 1 17.0393V16.7861ZM11.7956 14.8877H15.6811C15.7428 14.8923 15.8046 14.8816 15.8612 14.8566C15.9178 14.8316 15.9674 14.793 16.0055 14.7443C17.0721 13.4822 17.5169 12.0304 17.3157 10.3929C16.921 7.19001 13.8346 5.00181 10.6731 5.66896C6.53933 6.54597 4.84403 11.5982 7.62717 14.7452C7.66559 14.7937 7.71513 14.8323 7.77161 14.8576C7.82808 14.8829 7.88982 14.8942 7.9516 14.8906C9.23391 14.8819 10.5153 14.8877 11.7966 14.8877H11.7956ZM16.9942 14.8877C17.2974 14.8877 17.5718 14.8752 17.8462 14.8877C17.9178 14.897 17.9904 14.8819 18.0524 14.8449C18.1144 14.8079 18.1621 14.7511 18.1879 14.6836C19.0745 13.0919 19.3327 11.2259 18.9119 9.4533C17.8529 4.77943 12.4002 2.36981 8.25677 4.77558C5.84523 6.17726 4.59951 8.31636 4.52827 11.1082C4.50227 12.3827 4.83126 13.6393 5.47845 14.7375C5.5131 14.7982 5.58049 14.8781 5.6344 14.881C5.96172 14.8935 6.28903 14.8867 6.65389 14.8867C5.65654 13.4725 5.26184 11.939 5.48133 10.2658C5.57737 9.45913 5.83156 8.6793 6.22934 7.97096C6.62712 7.26262 7.16068 6.63968 7.7995 6.13779C8.94065 5.2111 10.3667 4.70673 11.8367 4.70989C13.3068 4.71304 14.7307 5.22354 15.8678 6.15512C18.264 8.09109 19.1352 11.9139 16.9971 14.8877H16.9942ZM2.18026 17.358C2.38724 17.6978 2.5509 18.0319 2.77135 18.3149C3.0823 18.7163 3.0823 19.0696 2.77135 19.4701C2.54993 19.7589 2.38628 20.0853 2.18507 20.4184H5.59301V19.5423H4.33477C4.02093 19.5423 3.87364 19.3873 3.86882 19.0716V17.358H2.18026ZM21.4505 17.3647H19.7725V19.0927C19.7725 19.3816 19.6165 19.5327 19.3287 19.5423H18.0397V20.4184H21.4418C21.3995 20.3414 21.3686 20.2807 21.333 20.2258C21.1337 19.8947 20.9422 19.5577 20.7285 19.2362C20.653 19.1386 20.6121 19.0187 20.6121 18.8954C20.6121 18.7721 20.653 18.6522 20.7285 18.5546C20.9749 18.1695 21.2021 17.7758 21.4514 17.3647H21.4505Z" fill="#008A22"/>
<path d="M11.8052 19.5414C11.7507 19.5406 11.6968 19.5289 11.6467 19.5072C11.5967 19.4855 11.5514 19.4541 11.5134 19.4148C11.4755 19.3756 11.4457 19.3292 11.4258 19.2784C11.4058 19.2276 11.396 19.1734 11.397 19.1188C11.4004 19.0072 11.4479 18.9016 11.5291 18.825C11.6104 18.7485 11.7187 18.7073 11.8303 18.7106C11.9418 18.714 12.0475 18.7615 12.1241 18.8427C12.2006 18.9239 12.2418 19.0323 12.2384 19.1438C12.2337 19.254 12.1854 19.3578 12.1041 19.4323C12.0229 19.5069 11.9154 19.5461 11.8052 19.5414Z" fill="#008A22"/>
<path d="M10.9774 10.7904C11.8044 9.96152 12.6063 9.1596 13.4034 8.35479C13.7047 8.05154 14.058 7.89655 14.4874 7.94468C14.7144 7.96145 14.9319 8.0429 15.1141 8.17938C15.2963 8.31586 15.4356 8.50167 15.5156 8.71484C15.6091 8.92578 15.6412 9.15885 15.6082 9.38723C15.5752 9.61562 15.4783 9.83003 15.3288 10.0058C15.2757 10.0713 15.2181 10.1331 15.1565 10.1906L12.0489 13.3011C11.375 13.975 10.5789 13.975 9.91172 13.3059C9.38898 12.7832 8.85276 12.2691 8.34638 11.7348C8.19127 11.5746 8.08153 11.376 8.0284 11.1594C7.97528 10.9428 7.98068 10.7159 8.04406 10.5021C8.10743 10.2883 8.2265 10.0952 8.38907 9.94248C8.55164 9.78981 8.75186 9.68308 8.96924 9.63325C9.18185 9.57758 9.40549 9.58002 9.61683 9.64031C9.82817 9.70059 10.0194 9.81651 10.1707 9.97596C10.4345 10.2359 10.6944 10.5026 10.9774 10.7904ZM10.9697 12.9959C11.109 12.9346 11.2421 12.8601 11.3673 12.7735C11.5387 12.6301 11.6898 12.4597 11.8487 12.3009L14.5827 9.56778C14.7088 9.44263 14.8243 9.29823 14.757 9.12398C14.7037 8.9916 14.6074 8.88103 14.4835 8.81014C14.3122 8.72254 14.1466 8.81014 14.0109 8.943C13.1239 9.83124 12.2379 10.7179 11.3529 11.6029C11.0833 11.8715 10.8773 11.8715 10.6097 11.6029C10.2698 11.266 9.93579 10.929 9.59307 10.5892C9.38898 10.3899 9.12809 10.3832 8.95673 10.5622C8.78537 10.7413 8.79789 10.9906 8.99524 11.1832C9.51509 11.7088 10.0359 12.2344 10.5664 12.7495C10.6703 12.8544 10.8195 12.9083 10.9697 12.9959Z" fill="#008A22"/>
</svg>
