<svg width="36" height="35" viewBox="0 0 36 35" fill="none" xmlns="http://www.w3.org/2000/svg">
<g clip-path="url(#clip0_9500_40452)">
<path fill-rule="evenodd" clip-rule="evenodd" d="M16.3634 1.00682C21.074 0.817647 24.7838 4.6007 28.2084 7.97435C31.7717 11.4846 36.4953 15.2325 35.9579 20.3098C35.4317 25.2821 29.8565 27.4261 25.8567 30.1961C22.9335 32.2205 19.8426 33.3918 16.3634 33.8795C12.0844 34.4793 7.04723 36.3685 3.91734 33.2713C0.774746 30.1614 2.37722 24.8154 2.65086 20.3098C2.89812 16.2386 3.06835 12.1699 5.39805 8.89039C8.14413 5.02477 11.7496 1.1921 16.3634 1.00682Z" fill="#DEE6F7"/>
<path d="M29 8H3C2.44772 8 2 8.44772 2 9V23C2 23.5523 2.44772 24 3 24H29C29.5523 24 30 23.5523 30 23V9C30 8.44772 29.5523 8 29 8Z" stroke="#175ADC" stroke-width="2" stroke-linecap="round" stroke-linejoin="round"/>
<path d="M16 20C18.2091 20 20 18.2091 20 16C20 13.7909 18.2091 12 16 12C13.7909 12 12 13.7909 12 16C12 18.2091 13.7909 20 16 20Z" stroke="#175ADC" stroke-width="2" stroke-linecap="round" stroke-linejoin="round"/>
<path d="M22 8L30 15" stroke="#175ADC" stroke-width="2" stroke-linecap="round" stroke-linejoin="round"/>
<path d="M22 24L30 17" stroke="#175ADC" stroke-width="2" stroke-linecap="round" stroke-linejoin="round"/>
<path d="M10 8L2 15" stroke="#175ADC" stroke-width="2" stroke-linecap="round" stroke-linejoin="round"/>
<path d="M10 24L2 17" stroke="#175ADC" stroke-width="2" stroke-linecap="round" stroke-linejoin="round"/>
</g>
<defs>
<clipPath id="clip0_9500_40452">
<rect width="36" height="35" fill="white"/>
</clipPath>
</defs>
</svg>
