<svg width="36" height="36" viewBox="0 0 36 36" fill="none" xmlns="http://www.w3.org/2000/svg">
<g clip-path="url(#clip0_972_102141)">
<path fill-rule="evenodd" clip-rule="evenodd" d="M16.3634 1.50682C21.074 1.31765 24.7838 5.1007 28.2084 8.47435C31.7717 11.9846 36.4953 15.7325 35.9579 20.8098C35.4317 25.7821 29.8565 27.9261 25.8567 30.6961C22.9335 32.7205 19.8426 33.8918 16.3634 34.3795C12.0844 34.9793 7.04723 36.8685 3.91734 33.7713C0.774746 30.6614 2.37722 25.3154 2.65086 20.8098C2.89812 16.7386 3.06835 12.6699 5.39805 9.39039C8.14413 5.52477 11.7496 1.6921 16.3634 1.50682Z" fill="#DEE6F7"/>
<path d="M6.80761 25.6924C5.65711 24.5419 6.42019 22.1265 5.8346 20.7111C5.22755 19.244 3 18.0631 3 16.5C3 14.9368 5.22756 13.756 5.8346 12.2888C6.4202 10.8735 5.65711 8.45811 6.80761 7.30761C7.95811 6.15711 10.3735 6.92019 11.7889 6.3346C13.256 5.72755 14.4369 3.5 16 3.5C17.5632 3.5 18.744 5.72756 20.2112 6.3346C21.6265 6.9202 24.0419 6.15711 25.1924 7.30761C26.3429 8.45811 25.5798 10.8735 26.1654 12.2889C26.7725 13.756 29 14.9369 29 16.5C29 18.0632 26.7724 19.244 26.1654 20.7112C25.5798 22.1265 26.3429 24.5419 25.1924 25.6924C24.0419 26.8429 21.6265 26.0798 20.2111 26.6654C18.744 27.2725 17.5631 29.5 16 29.5C14.4368 29.5 13.256 27.2724 11.7888 26.6654C10.3735 26.0798 7.95811 26.8429 6.80761 25.6924Z" stroke="#454545" stroke-width="2" stroke-linecap="round" stroke-linejoin="round"/>
<path d="M21.5 13.5L14.1666 20.5L10.5 17" stroke="#454545" stroke-width="2" stroke-linecap="round" stroke-linejoin="round"/>
</g>
<defs>
<clipPath id="clip0_972_102141">
<rect width="36" height="35" fill="white" transform="translate(0 0.5)"/>
</clipPath>
</defs>
</svg>
