<svg width="24" height="24" viewBox="0 0 24 24" fill="none" xmlns="http://www.w3.org/2000/svg">
<path d="M8.48089 20.8866C9.01267 20.7475 9.53983 20.6212 10.0587 20.4691C10.176 20.4285 10.302 20.4202 10.4236 20.445C10.5452 20.4698 10.6579 20.5268 10.7499 20.6102C11.1665 20.9456 11.5997 21.2553 12.0402 21.5935C12.3922 21.3281 12.7655 21.0866 13.0899 20.7917C13.4586 20.4526 13.8337 20.353 14.3138 20.5392C14.6705 20.6765 15.0585 20.7318 15.4271 20.8442C15.5774 20.8894 15.6419 20.8442 15.711 20.7208C15.9644 20.2747 16.2308 19.836 16.4842 19.389C16.525 19.3099 16.5851 19.2422 16.6588 19.1923C16.7326 19.1424 16.8177 19.1118 16.9063 19.1033C17.4224 19.036 17.9376 18.9577 18.4547 18.895C18.5947 18.8775 18.639 18.8241 18.6602 18.6867C18.7219 18.1771 18.8003 17.673 18.8657 17.1596C18.8734 17.0674 18.904 16.9786 18.9549 16.9013C19.0058 16.824 19.0752 16.7607 19.1569 16.7172C19.72 16.3956 20.2758 16.0601 20.837 15.7357C20.9277 15.6806 21.0287 15.6445 21.1338 15.6297C21.2274 15.6213 21.3209 15.6462 21.398 15.7C21.475 15.7537 21.5306 15.833 21.555 15.9237C21.6167 16.1228 21.5365 16.3154 21.32 16.4454C20.8739 16.7117 20.4288 16.9836 19.9707 17.2287C19.8785 17.2696 19.7996 17.3356 19.7432 17.4192C19.6868 17.5029 19.6552 17.6007 19.6518 17.7015C19.6011 18.2047 19.52 18.7061 19.45 19.2075C19.4039 19.5346 19.3007 19.6388 18.9744 19.6839C18.4215 19.7613 17.8685 19.8305 17.3211 19.9171C17.223 19.9395 17.1373 19.9985 17.0814 20.0821C16.7939 20.5493 16.5211 21.0249 16.2428 21.4986C16.0658 21.8 15.9294 21.8562 15.5875 21.7668C15.0557 21.6285 14.5258 21.4838 13.9922 21.3548C13.8993 21.3355 13.8026 21.3526 13.7221 21.4027C13.2733 21.7308 12.8328 22.0709 12.3913 22.4101C12.1333 22.6091 11.9563 22.611 11.6983 22.4101C11.2568 22.0718 10.8181 21.7308 10.3684 21.4037C10.2816 21.3503 10.1776 21.3325 10.0781 21.3539C9.54444 21.4829 9.01451 21.6304 8.48273 21.7668C8.15832 21.8516 8.02192 21.7926 7.84497 21.4995C7.56849 21.0267 7.28463 20.5558 7.01552 20.0784C6.9908 20.0283 6.95316 19.9858 6.9065 19.9552C6.85983 19.9246 6.80584 19.907 6.75009 19.9042C6.21924 19.836 5.68931 19.7604 5.15938 19.6876C4.76953 19.6342 4.68474 19.5503 4.63221 19.1678C4.55848 18.6314 4.48936 18.0932 4.40457 17.5578C4.38373 17.4596 4.326 17.3731 4.24329 17.3163C3.78248 17.0315 3.31245 16.7633 2.84611 16.4868C2.79635 16.4583 2.74842 16.4278 2.70142 16.3947C2.60806 16.3328 2.54302 16.2365 2.52056 16.1268C2.4981 16.0171 2.52005 15.903 2.58161 15.8094C2.64018 15.7178 2.73234 15.6528 2.8383 15.6283C2.94426 15.6039 3.05559 15.6219 3.1484 15.6786C3.67557 15.9763 4.18615 16.3044 4.72345 16.5827C4.88231 16.6528 5.01748 16.7673 5.11266 16.9126C5.20784 17.0578 5.25895 17.2274 5.25983 17.4011C5.28932 17.8342 5.3778 18.2637 5.42757 18.696C5.44324 18.8287 5.49669 18.8729 5.62387 18.8886C6.12708 18.9503 6.62752 19.0296 7.13072 19.0904C7.23393 19.0977 7.33345 19.1318 7.41944 19.1893C7.50543 19.2469 7.57492 19.3259 7.62102 19.4185C7.90027 19.9106 8.18874 20.3917 8.48089 20.8866Z" fill="#008A22"/>
<path d="M6.73236 17.299C6.55817 17.0695 6.24851 16.6622 5.94069 16.253C5.81811 16.0889 5.75636 15.9156 5.86327 15.7166C5.97018 15.5175 6.15542 15.4917 6.35634 15.4917H17.7669C17.9568 15.4917 18.1208 15.5276 18.2213 15.7092C18.3217 15.8908 18.2775 16.0603 18.166 16.2281C16.7669 18.3542 14.7716 19.439 12.2519 19.5265C10.1875 19.603 8.39311 18.8989 6.73236 17.299ZM16.9835 16.3977H7.10653C8.42445 17.9321 10.1018 18.7017 12.122 18.6805C14.0823 18.6611 15.7062 17.8888 16.9835 16.3977Z" fill="#008A22"/>
<path d="M6.87798 7.06914C9.394 4.62961 13.5275 4.32087 16.3467 6.3899C17.0691 6.91502 17.686 7.57162 18.165 8.3253C18.272 8.49396 18.3263 8.65709 18.2259 8.8451C18.1254 9.03311 17.93 9.06536 17.73 9.06536H6.33976C6.14437 9.06536 5.97111 9.03772 5.86697 8.84325C5.82194 8.76137 5.80376 8.66741 5.81501 8.57464C5.82625 8.48188 5.86635 8.39498 5.92964 8.32623C6.24667 7.90965 6.56187 7.48755 6.87798 7.06914ZM16.9826 8.15665C15.7292 6.69312 14.1357 5.91988 12.2095 5.87656C10.1553 5.83048 8.45026 6.60003 7.10747 8.15849L16.9826 8.15665Z" fill="#008A22"/>
<path d="M1.59352 13.6643L1 11.1787H1.51334L1.88844 12.8855L2.3428 11.1787H2.94001L3.37593 12.915L3.75748 11.1787H4.26253L3.65887 13.6671H3.12617L2.63127 11.8054L2.13728 13.6643H1.59352Z" fill="#008A22"/>
<path d="M6.25331 13.6637H5.70587L5.48837 13.0987H4.49486L4.29026 13.6637H3.75757L4.72527 11.1753H5.25612L6.25331 13.6637ZM5.33169 12.6803L4.98977 11.7587L4.6543 12.6803H5.33169Z" fill="#008A22"/>
<path d="M6.51953 13.6637V11.1753H7.57571C7.77094 11.1662 7.96637 11.1886 8.15448 11.2417C8.27506 11.2864 8.37702 11.3705 8.44387 11.4804C8.51919 11.598 8.55858 11.7351 8.55723 11.8748C8.56297 12.0438 8.50396 12.2087 8.39226 12.3356C8.26082 12.4678 8.08677 12.5491 7.90104 12.5651C8.00004 12.6216 8.09037 12.692 8.16923 12.7743C8.27624 12.9001 8.37185 13.0352 8.45493 13.178L8.75907 13.6628H8.15356L7.79137 13.1218C7.71091 12.9935 7.62257 12.8704 7.52686 12.7531C7.48538 12.7072 7.43357 12.6718 7.37572 12.6499C7.29344 12.6279 7.20828 12.6186 7.12319 12.6223H7.02089V13.66L6.51953 13.6637ZM7.02089 12.2296H7.38954C7.54074 12.2373 7.69232 12.2271 7.84113 12.1992C7.89837 12.1811 7.94775 12.144 7.98122 12.0942C8.01673 12.0394 8.03473 11.9751 8.03283 11.9098C8.036 11.8363 8.01206 11.7641 7.96555 11.7071C7.91726 11.6542 7.85212 11.6197 7.78123 11.6094C7.74068 11.6039 7.6181 11.6011 7.41258 11.6011H7.02089V12.2296Z" fill="#008A22"/>
<path d="M9.02734 13.6637V11.1753H10.0835C10.2788 11.1662 10.4742 11.1886 10.6623 11.2417C10.784 11.2868 10.8867 11.3719 10.9535 11.4831C11.0267 11.6005 11.0645 11.7365 11.0623 11.8748C11.068 12.0438 11.009 12.2087 10.8973 12.3356C10.7659 12.4678 10.5918 12.5491 10.4061 12.5651C10.5051 12.6216 10.5954 12.692 10.6743 12.7743C10.7813 12.9001 10.8769 13.0352 10.96 13.178L11.2641 13.6628H10.6632L10.301 13.1218C10.2206 12.9935 10.1322 12.8704 10.0365 12.7531C9.99504 12.7072 9.94323 12.6718 9.88537 12.6499C9.80309 12.6279 9.71794 12.6186 9.63285 12.6223H9.5287V13.66L9.02734 13.6637ZM9.5287 12.2296H9.89735C10.0486 12.2373 10.2001 12.2271 10.3489 12.1992C10.4062 12.1811 10.4556 12.144 10.489 12.0942C10.5245 12.0394 10.5425 11.9751 10.5406 11.9098C10.5438 11.8363 10.5199 11.7641 10.4734 11.7071C10.4251 11.6542 10.3599 11.6197 10.289 11.6094C10.2485 11.6039 10.1259 11.6011 9.92039 11.6011H9.5287V12.2296Z" fill="#008A22"/>
<path d="M13.7958 13.6637H13.2484L13.0308 13.0987H12.0373L11.8327 13.6637H11.3L12.2677 11.1753H12.7986L13.7958 13.6637ZM12.8742 12.6803L12.5323 11.7587L12.1968 12.6803H12.8742Z" fill="#008A22"/>
<path d="M13.8547 13.6637V11.1753H14.3432L15.357 12.8342V11.1753H15.8233V13.6637H15.3192L14.3211 12.0453V13.6664L13.8547 13.6637Z" fill="#008A22"/>
<path d="M16.9165 13.6643V11.599H16.1792V11.1787H18.1542V11.599H17.4169V13.6643H16.9165Z" fill="#008A22"/>
<path d="M18.4785 13.6637V11.1753H20.3218V11.5956H18.9799V12.1485H20.2277V12.5669H18.9799V13.2434H20.3688V13.6627L18.4785 13.6637Z" fill="#008A22"/>
<path d="M20.7927 11.1782H21.7143C21.8736 11.173 22.0329 11.1888 22.1881 11.2252C22.3311 11.2667 22.4604 11.346 22.5622 11.4547C22.6699 11.57 22.7511 11.7075 22.8 11.8575C22.8588 12.0474 22.8862 12.2457 22.8811 12.4445C22.8852 12.6239 22.8593 12.8027 22.8046 12.9735C22.7521 13.139 22.6612 13.2896 22.5392 13.4131C22.4383 13.5054 22.3175 13.5732 22.1862 13.6113C22.0415 13.6506 21.8918 13.6683 21.742 13.6638H20.7927V11.1782ZM21.295 11.5985V13.2436H21.6692C21.7711 13.247 21.8731 13.2393 21.9733 13.2205C22.0485 13.2031 22.1181 13.1673 22.1761 13.1164C22.2401 13.0495 22.2852 12.9668 22.3069 12.8768C22.3454 12.7282 22.3625 12.5749 22.3576 12.4215C22.3632 12.2723 22.3461 12.1232 22.3069 11.9791C22.2805 11.8883 22.2317 11.8056 22.165 11.7386C22.0996 11.6787 22.0189 11.6382 21.9318 11.6215C21.7955 11.6011 21.6576 11.5931 21.5199 11.5976L21.295 11.5985Z" fill="#008A22"/>
<path d="M12.0474 2.96206C11.6004 3.30213 11.1589 3.62839 10.7285 3.96754C10.6468 4.04241 10.5468 4.09443 10.4385 4.11837C10.3303 4.14231 10.2177 4.13734 10.112 4.10394C9.62536 3.96386 9.13137 3.84865 8.64383 3.71225C8.62199 3.70176 8.59829 3.69569 8.5741 3.69436C8.54991 3.69304 8.52569 3.6965 8.50283 3.70455C8.47998 3.7126 8.45893 3.72507 8.4409 3.74126C8.42287 3.75744 8.40821 3.77703 8.39776 3.79889C8.39475 3.80479 8.39228 3.81096 8.39039 3.81732C8.14063 4.25785 7.87428 4.68825 7.62913 5.13063C7.58091 5.22575 7.5087 5.30665 7.41964 5.36532C7.33058 5.424 7.22775 5.45841 7.12132 5.46517C6.61811 5.52416 6.11675 5.60434 5.61447 5.66701C5.49282 5.68175 5.44766 5.72599 5.43015 5.85133C5.3684 6.35361 5.2873 6.85497 5.22739 7.35818C5.22045 7.46445 5.18606 7.5671 5.12759 7.65611C5.06911 7.74512 4.98855 7.81743 4.89376 7.86599C4.32881 8.18487 3.77308 8.52126 3.21181 8.84752C2.9556 8.9959 2.70031 8.94797 2.57221 8.736C2.4441 8.52403 2.51507 8.26229 2.78141 8.10469C3.24222 7.8282 3.71225 7.55172 4.18688 7.28906C4.25609 7.25496 4.31465 7.2026 4.35623 7.13762C4.39782 7.07264 4.42084 6.99753 4.42282 6.92041C4.48549 6.39601 4.5629 5.87345 4.63479 5.35366C4.68087 5.02556 4.7804 4.92418 5.11034 4.87718C5.64765 4.80161 6.18403 4.72327 6.72318 4.65876C6.78927 4.65479 6.85307 4.6331 6.90789 4.59597C6.9627 4.55883 7.0065 4.50762 7.03468 4.44771C7.29366 3.9869 7.56554 3.53622 7.83281 3.08094C8.02542 2.75285 8.14524 2.704 8.51941 2.80446C9.03736 2.93901 9.55531 3.07081 10.0714 3.21274C10.1281 3.23115 10.1886 3.23411 10.2467 3.22131C10.3049 3.20851 10.3586 3.18041 10.4023 3.13993C10.841 2.79709 11.2852 2.46162 11.7303 2.12615C11.9543 1.95749 12.1294 1.95841 12.3552 2.12615C12.7994 2.45977 13.2436 2.79524 13.6814 3.13993C13.7257 3.17962 13.7798 3.20691 13.838 3.21904C13.8963 3.23118 13.9567 3.22773 14.0132 3.20905C14.5357 3.06528 15.0611 2.93256 15.5855 2.79524C15.9302 2.70308 16.0629 2.76206 16.2407 3.06436C16.5172 3.53807 16.7937 4.01454 17.0794 4.48181C17.136 4.56493 17.2225 4.62303 17.3209 4.64401C17.8637 4.73064 18.4093 4.79884 18.9531 4.87441C19.3042 4.92234 19.401 5.02095 19.4498 5.37762C19.5235 5.91492 19.5908 6.45407 19.6775 6.98861C19.6992 7.0935 19.7606 7.18595 19.8489 7.24666C20.3217 7.53882 20.8055 7.81346 21.2848 8.09547C21.5281 8.24017 21.6175 8.42818 21.5502 8.64107C21.5209 8.74558 21.4515 8.83424 21.357 8.88762C21.2625 8.941 21.1507 8.95475 21.0461 8.92585C21.0171 8.91721 20.989 8.90579 20.9622 8.89175C20.3226 8.53232 19.6876 8.16275 19.0646 7.77567C18.9632 7.713 18.895 7.54619 18.8729 7.41624C18.7872 6.91027 18.719 6.40246 18.6609 5.89004C18.6425 5.72876 18.5761 5.68083 18.4259 5.66332C17.9227 5.60249 17.4223 5.52416 16.919 5.46056C16.8276 5.45243 16.7396 5.42129 16.6634 5.37005C16.5872 5.31881 16.5252 5.24913 16.4831 5.16749C16.2334 4.72696 15.9679 4.29564 15.7219 3.85418C15.6408 3.70857 15.5606 3.67908 15.4011 3.72516C14.9284 3.86156 14.4482 3.97123 13.9745 4.10671C13.873 4.13939 13.7647 4.1451 13.6603 4.12329C13.5559 4.10148 13.459 4.05288 13.3791 3.98229C12.9478 3.63945 12.5082 3.31227 12.0474 2.96206Z" fill="#008A22"/>
</svg>
